<?xml version="1.0" encoding="utf-8"?>
<!DOCTYPE svg PUBLIC "-//W3C//DTD SVG 1.1//EN" "http://www.w3.org/Graphics/SVG/1.1/DTD/svg11.dtd">
<svg version="1.1" xmlns="http://www.w3.org/2000/svg" viewBox="0 0 1020.822 371.203">
	<style type="text/css">
		path {
			fill: white;
		}
	</style>
	<g>
		<title>Mad Dangerous</title>
		<path d="M976.99,33.924C950.655,11.512,917.224,0.306,876.692,0.306c-29.539,0-53.128,6.3-70.758,18.892 C794.481,8.437,780.587,3.054,764.331,3.054C753.795,3.054,743,5.329,732,9.87v34.746c5-2.287,10.229-3.435,14.813-3.435 c3.66,0,7.251,1.369,10.342,4.106c3.092,2.737,4.846,5.93,4.846,9.58v117.333c0,18.436-3.857,29.833-11.182,34.208 c-4.854,1.854-14.683,1.859-18.401,1.021c-8.305-1.603-14.612-6.058-18.37-13.396c-4.121-7.781-15.657-31.482-34.431-71.101 c-21.983-46.483-33.018-70.984-33.018-73.506c0-6.183,4.215-9.274,12.689-9.274c5.034,0,8.921,1.374,11.668,4.122l-0.35-37.44 c-10.991-4.347-23.015-6.295-36.067-5.839c-19.234,0.687-36.643,6.757-52.212,18.205c-15.574-12.591-33.56-18.661-53.482-18.205 C517.853,1.224,507,3.628,497,8.206v34.005c4-1.83,8.255-2.748,13.295-2.748c2.286,0,4.699,0.746,6.991,2.233 c2.287,1.492,3.496,3.494,3.496,6.011c0,5.496-1.456,11.109-4.431,16.831l-69.029,129.908c-2.063,4.105-5.488,7.524-10.297,10.256 c-4.523,2.629-9.549,4.297-14.776,4.689c-3.666,0.275-10.287,0.463-13.262-1.292c-4.696-2.759-7.673-6.205-8.817-10.349 L363.732,64.983c-1.605-6.205-2.419-10.691-2.419-13.45c0-8.275,4.771-12.414,14.389-12.414c3.435,0,7.298,1.948,11.298,5.839V6.488 c-6-4.122-14.74-6.182-26.418-6.182c-17.174,0.241-31.13,6.311-41.89,18.205c-10.766-10.53-24.272-16.256-40.528-17.174 C264.88,0.649,255,2.367,250,6.488v35.036c3-1.83,6.568-2.748,9.337-2.748c2.303,0,4.376,0.864,6.223,2.593 c1.841,1.728,2.765,3.627,2.765,5.699c0,0.918-14.11,36.104-42.318,105.563c-7.632-17.765-15.263-35.529-22.895-53.294 c-11.099-27.221-16.648-43.95-16.648-50.181c0-6.687,4.004-10.036,12.022-10.036c3.435,0,6.752,0.805,9.961,2.404l0.343-35.036 c-7.332-5.265-17.979-7.326-31.944-6.182c-19.01,1.631-31.718,7.814-38.126,18.548C127.954,6.95,112.882,0.768,94.333,0.306 C79.445,0.08,70,2.141,63,6.488v36.066c4-2.287,7.746-3.435,11.411-3.435c8.931,0,13.606,4.379,13.606,13.133 c0,11.518-12.26,59.434-36.991,143.749c-2.979,9.908-10.746,14.861-22.65,14.861c-4.584,0-8.376-1.83-13.376-5.496v37.44 c10,4.121,17.432,5.951,26.138,5.496c16.487-0.456,28.354-5.153,35.224-14.083c5.034,10.761,16.806,16.251,35.128,16.486 c11.217,0.226,20.511-1.964,25.511-6.579v-36.699c-3,2.291-7.899,3.435-12.707,3.435c-5.271,0-9.504-1.659-12.709-4.98 c-3.209-3.317-4.809-7.61-4.809-12.88c0-5.497,3.661-21.753,10.992-48.776c4.809-17.399,9.618-34.917,14.427-52.553l64.575,157.66 l43.279-0.344l65.263-155.942l24.731,90.868c1.83,6.683,2.748,11.749,2.748,15.2c0,7.835-4.427,11.748-13.127,11.748 c-2.979,0-6.662-0.913-8.662-2.747v37.783c7,3.435,14.958,5.033,24.806,4.808c17.861-0.23,31.407-5.951,40.568-17.174 c5.266,11.453,19.023,17.174,41.237,17.174c12.027,0,25.137-1.838,36.6-5.389c8.7-2.683,14.993-5.925,18.89-9.725 c9.843,9.393,23.124,14.083,39.843,14.083c8.931,0,17.974-2.023,27.135-6.081l-0.343-34.106c-4.584,1.148-9.393,1.718-14.426,1.718 c-13.054,0-19.58-4.203-19.58-12.264c0-1.794,3.316-7.651,9.961-18.651h120.22c5.952,9,8.931,15.672,8.931,20.879 c0,2.49-1.948,4.615-5.839,6.198c-2.979,1.357-5.715,2.077-8.688,2.077c-2.747,0-6.313-0.413-7.313-1.33v37.097 c8,3.891,16.813,5.72,26.205,5.494c14.883-0.461,26.896-5.264,36.289-14.427c14.194,8.933,28.388,11.886,42.875,13.396 c7.597,0.792,9.379,0.553,17.027,0.553c14.427,0,32.729-7.079,44.407-18.07c20.379,14.427,48.538,21.64,84.491,21.64 c21.066,0,40.753-3.092,59.075-9.263c21.297-7.315,38.009-17.835,50.148-31.558c23.582-27.211,35.378-54.996,35.378-83.355 C1018.896,89.607,1004.925,57.711,976.99,33.924C950.655,11.512,1004.925,57.711,976.99,33.924 C950.655,11.512,1004.925,57.711,976.99,33.924C950.655,11.512,1004.925,57.711,976.99,33.924 C950.655,11.512,1004.925,57.711,976.99,33.924z M536.771,138.291l41.406-79.742l38.153,79.742H536.771z M922.72,184.902 c-14.657,15.703-34.105,23.556-58.836,23.556c-14.888,0-27.884-3.87-37.884-11.608V52.446c12-7.508,24.531-11.265,39.145-11.265 c24.431,0,43.716,7.97,58.1,23.899c13.696,15.248,20.489,35.159,20.489,59.74C943.733,149.856,936.685,169.885,922.72,184.902z"/>
		<path d="M97.47,283.271c-10.483-8.921-23.791-13.382-39.924-13.382c-11.759,0-21.148,2.508-28.166,7.52 c-4.559-4.283-10.064-6.426-16.536-6.426c-4.194,0-8.844,0.905-12.844,2.713v13.83c3-0.909,4.046-1.366,5.87-1.366 c1.457,0,2.929,0.545,4.159,1.634c1.23,1.09,1.971,2.361,1.971,3.813v46.705c0,9.622-2.629,14.434-7.641,14.434 c-1.277,0-2.359-0.273-4.359-0.82v15.313c3,1.004,4.821,1.504,7.374,1.504c5.743,0,10.935-2.188,15.583-6.563 c8.112,5.742,19.321,8.613,33.633,8.613c8.385,0,16.222-1.23,23.516-3.688c8.478-2.912,15.129-7.099,19.962-12.561 c9.387-10.832,14.082-21.892,14.082-33.181C114.15,305.436,108.589,292.739,97.47,283.271z M75.867,343.369 c-5.835,6.251-13.259,9.376-23.103,9.376c-5.927,0-11.764-1.54-14.764-4.621v-57.48c4-2.989,9.447-4.484,15.266-4.484 c9.725,0,17.243,3.172,22.968,9.513c5.452,6.069,8.076,13.996,8.076,23.78C84.31,329.418,81.425,337.391,75.867,343.369z"/>
		<path d="M352,287.662c0-6.387,0-11.478,0-15.274c-3-1.666-5.671-2.499-9.681-2.499c-5.561,0-10.15,2.415-13.795,7.246 c-3.465-4.557-8.436-6.837-14.907-6.837c-3.92,0-6.617,0.685-8.617,2.052v15.313c1-0.546,1.788-1.046,2.608-1.503 c1.184-0.637,2.732-0.958,4.191-0.958c4.649,0,7.2,3.784,7.2,11.349v44.026l-42.47-49.329c-0.274-0.823-0.521-1.557-0.521-2.197 c0-2.474,1.722-3.711,5.277-3.711c1.367,0,2.707,0.319,4.074,0.957l-0.151-13.946c-2.461-1.641-5.749-2.461-9.851-2.461 c-8.022,0-13.54,2.461-16.548,7.383c-5.379-4.103-11.62-6.426-18.82-6.974c-5.106-0.362-9.991,0.321-14.991,2.052v15.176 c3-1.456,4.871-2.187,7.059-2.187c1.823,0,3.381,0.734,4.338,2.2c0.957,1.468,1.603,3.164,1.603,5.091v50.209 c0,3.392-0.603,5.823-1.424,7.289c-0.521,0.964-1.376,1.691-2.356,2.194c-3.326-0.64-5.796-2.402-7.29-5.32 c-1.641-3.098-6.224-12.531-13.697-28.302c-8.75-18.503-13.138-28.256-13.138-29.26c0-2.461,1.679-3.691,5.053-3.691 c2.004,0,3.552,0.547,4.646,1.641l-0.138-14.903c-4.375-1.73-9.161-2.506-14.357-2.325c-7.657,0.274-14.586,2.69-20.783,7.247 c-6.2-5.012-13.134-7.428-21.064-7.247c-4.375,0.092-8.451,1.05-12.451,2.872v13.535c1-0.728,3.062-1.094,5.067-1.094 c0.91,0,1.758,0.298,2.67,0.89c0.91,0.594,1.335,1.391,1.335,2.393c0,2.188-0.608,4.422-1.792,6.699l-27.492,51.711 c-0.82,1.634-2.192,2.995-4.106,4.083c-2.188,1.271-4.315,1.905-6.777,1.905c-1.368,0-2.906-0.182-3.906-0.546v15.854 c2,0.459,3.949,0.689,6.229,0.689c3.918,0,7.647-0.577,11.386-1.734c3.463-1.069,5.919-2.359,7.471-3.871 c3.918,3.738,9.181,5.605,15.835,5.605c3.555,0,7.143-0.805,10.79-2.421l-0.144-13.576c-1.825,0.457-3.742,0.684-5.746,0.684 c-5.195,0-7.794-1.796-7.794-5.003c0-0.713,1.318-2.545,3.963-7.545h47.854c2.37,4,3.555,6.359,3.555,8.432 c0,0.99-0.775,1.897-2.324,2.528c-1.186,0.541-2.127,0.856-3.312,0.856c-1.093,0-1.764-0.134-2.764-0.498v14.765 c3,1.55,6.545,2.278,10.284,2.188c5.924-0.184,10.632-2.096,14.371-5.742c5.65,3.554,11.287,5.332,17.03,5.332 c1.885,0,3.615-0.233,5.259-0.685c3.599-0.765,6.503-2.569,8.71-5.468c1.914,2.614,4.002,4.34,6.281,5.178 c1.641,0.467,3.974,0.701,7.438,0.701c4.376,0,7.627-0.872,9.627-2.619v-14.607c-1,1.003-2.794,1.503-4.708,1.503 c-2.098,0-3.897-0.662-5.219-1.989c-1.322-1.324-2.073-3.039-2.073-5.145v-34.158l48.58,56.879l32.42,0.137V298.37 c0-4.937,0.465-8.001,0.921-9.19c1.002-2.559,3.51-3.841,7.338-3.841C348.717,285.339,350,286.114,352,287.662z M156.382,324.291 l16.481-31.742l15.188,31.742H156.382z"/>
		<path d="M549,276.178c-7-4.19-14.734-5.887-23.955-5.887h-16.979c-6.574,0-12.872,0.848-18.896,2.943 c-5.021,1.824-8.583,3.684-10.682,5.779c-2.192-5.195-6-7.844-11.477-7.844c-1.643,0-5.011,0.817-9.011,2.547V287.8 c2-1.002,4.028-1.504,5.854-1.504c1.457,0,2.436,0.549,3.667,1.645c1.231,1.097,1.48,2.373,1.48,3.835v46.994 c0,7.21-1.04,11.73-3.82,13.571c-1.071,0.682-3.7,1.196-5.894,0.448c-2.275-1.63-3.286-6.422-3.286-14.4v-14.098h-46v17h20.397 c-0.092,4-2.279,6.844-6.563,8.939c-3.828,1.824-8.75,2.761-14.766,2.761c-9.936,0-17.774-3.125-23.517-9.402 c-5.653-6.003-8.477-14-8.477-24.007c0-9.823,2.824-17.871,8.477-24.148c5.651-6.277,13.352-9.365,23.107-9.274 c6.105,0.092,11.438,1.811,15.998,5.161c5.285,3.713,7.992,8.69,8.083,14.937c12.122,0.092,20.261,0.138,23.261,0.138v-35.104h-18 v5.844c-7-5.104-18.848-7.52-34.001-7.246c-16.249,0.272-29.598,4.778-40.005,13.518c-11.229,9.468-16.853,22.119-16.853,37.958 c0,11.289,4.733,22.349,14.215,33.181c4.648,5.37,11.938,9.557,21.874,12.561c8.293,2.457,16.816,3.688,25.566,3.688 c15.677,0,27.572-2.871,35.685-8.613c4.649,4.375,9.161,6.563,13.536,6.563c0.741,0,1.472-0.055,2.197-0.14 c1.435,0.443,2.742,0.687,3.896,0.687c2.829,0,5.294-0.594,7.396-1.777c1.551-0.82,3.604-2.527,6.161-4.898 c5.568,5.195,16.66,7.678,33.274,7.678h11.229c4.563,0,9.535-0.5,14.783-1.73c5.25-1.232,9.047-2.643,12.047-4.467v4.197h18v-34 h-18.128c0,4-1.368,8.885-4.102,13.076c-3.374,4.922-7.704,6.924-12.989,6.924h-20.373c-3.191,0-6.815-1.936-10.733-6.037 c-3.738-3.828-5.675-6.947-5.675-9.592v-9.981c8,0.092,12.575,0.184,14.479,0.274c2.446,0,4.655,0.798,6.559,2.393 c1.904,1.596,2.873,3.295,2.873,5.484c0,2.371-0.118,4.459-0.392,4.459h15.587c0.637-1,0.957-2.818,0.957-4.734 c0-7.93-3.056-13.439-9.16-16.721c2.368-1.094,4.488-3.393,6.357-6.994c1.866-3.601,2.803-6.764,2.803-9.771 c0-1.914-0.32-3.779-0.957-4.779h-15.587c0.273,1,0.41,1.933,0.41,4.12c0,2.645-0.998,4.509-2.991,6.423 c-1.995,1.914-4.305,2.457-6.932,2.457H495v-10.639c0-3.463,1.983-6.84,5.812-10.12c3.463-2.825,6.54-4.241,9.093-4.241h19.825 c5.378,0,10.091,2.113,14.011,6.334c3.463,3.765,5.26,7.758,5.26,11.979v1.687h18v-35h-18V276.178z"/>
		<path d="M783.904,284.704c-11.622-9.877-25.637-14.815-42.043-14.815c-16.408,0-30.423,4.938-42.044,14.815 c-11.622,9.876-17.433,21.823-17.433,35.842c0,11.293,3.777,21.239,11.318,29.845c-0.723,0.512-1.458,1.023-2.226,1.534 c-1.094,0.73-2.28,1.093-3.555,1.093c-2.827,0-7.794-3.503-14.903-10.51c-8.388-8.462-13.856-13.469-16.408-15.015 c16.681-5.461,25.021-14.47,25.021-27.029c0-9.554-5.561-17.245-16.681-23.068c-9.024-4.729-18.961-7.234-29.807-7.507 c-5.47-0.182-11.166,0.31-17.091,1.477c-7.11,1.433-12.489,3.447-16.134,6.043c-4.468-4.375-9.743-6.563-16.307-6.563 c-4.193,0-9.614,0.912-12.614,2.734v13.945c2-1.001,3.727-1.503,5.642-1.503c1.457,0,2.542,0.546,3.774,1.64 c1.229,1.095,1.584,2.372,1.584,3.829v46.897c0,10.118-2.129,15.177-7.141,15.177c-1.367,0-2.859-0.318-3.859-0.956v15.437 c2,1.01,4.593,1.517,7.146,1.517c5.743,0,10.819-2.232,15.468-6.699c6.017,4.194,11.744,6.289,17.305,6.289 c4.283,0,7.765-0.457,10.499-1.367l-0.151-15.176c-2.189,1.55-4.425,2.006-6.976,1.366c-4.285-1.002-6.29-3.098-6.29-6.289v-20.51 c7,2.27,13.256,3.675,16.811,4.218c13.764,7.618,20.575,13.736,20.575,18.633c0,2.269-1.12,3.264-3.217,3.264 c-0.639,0-1.169,0-2.169,0v14.39c3,1.255,4.89,1.882,6.622,1.882c4.923,0,9.327-2.051,13.155-6.153 c4.191,4.103,10.907,6.153,20.114,6.153c4.01,0,8.301-1.094,12.859-3.281l-0.119-14.867c1.58,1.711,3.298,3.374,5.183,4.976 c11.621,9.876,25.639,14.813,42.045,14.813c16.408,0,30.422-4.938,42.044-14.813s17.433-21.824,17.433-35.844 C801.336,306.527,795.526,294.58,783.904,284.704z M646.521,311.881c-5.091,2.359-9.998,3.537-14.724,3.537 c-3.182,0-6.765-0.452-11.036-1.36c-3.635-0.816-7.762-1.633-10.762-2.451v-20.959c5-3.448,11.797-5.173,19.273-5.173 c6.016,0,11.549,1.228,16.745,3.675c6.471,2.995,9.672,7.081,9.672,12.251C655.69,305.574,652.61,309.069,646.521,311.881z M763.464,344.747c-5.927,6.973-13.126,10.459-21.603,10.459c-8.388,0-15.566-3.486-21.535-10.459 c-5.972-6.974-8.956-15.428-8.956-25.364c0-10.025,2.961-18.39,8.888-25.088c5.924-6.701,13.125-10.05,21.604-10.05 c8.477,0,15.676,3.349,21.603,10.05c5.924,6.698,8.887,15.063,8.887,25.088C772.351,329.319,769.388,337.773,763.464,344.747z"/>
		<path d="M916,272.897c-5-1.823-8.088-2.736-11.459-2.736c-4.193,0-8.465,2.28-12.84,6.837c-4.102-4.557-8.592-6.837-12.966-6.837 c-3.373,0-6.735,0.906-11.735,2.714v13.968c3-1.002,4.085-1.504,5.797-1.504c1.53,0,2.988,0.547,4.25,1.641 c1.26,1.094,1.953,2.372,1.953,3.828v38.83c0,7.294-2.023,13.263-6.205,17.912c-4.455,4.922-10.509,7.383-18.234,7.383 c-7.817,0-13.938-2.875-18.119-8.631c-3.547-4.931-5.441-11.052-5.441-18.358v-37.125c0-1.462,0.731-2.739,1.917-3.835 c1.184-1.096,2.693-1.645,4.153-1.645c1.822,0,2.93,0.547,5.93,1.641v-14.082c-4-1.823-8.232-2.736-11.602-2.736 c-4.377,0-8.72,2.188-12.912,6.563c-3.92-4.375-8.278-6.563-12.928-6.563c-3.372,0-7.559,0.913-11.559,2.736v14.082 c2-1.094,3.963-1.641,5.787-1.641c1.549,0,2.629,0.547,3.77,1.641c1.139,1.094,1.443,2.372,1.443,3.828v34.455 c0,14.403,4.596,25.615,13.209,33.635c8.613,8.022,20.766,12.032,36.171,12.032c15.131,0,27.449-3.918,36.385-11.759 c9.298-8.112,14.235-19.415,14.235-33.908v-34.455c0-1.456,0.375-2.734,1.561-3.828c1.184-1.094,2.371-1.641,3.831-1.641 c1.822,0,3.608,0.547,5.608,1.641V272.897z"/>
		<path d="M1004.238,316.375c-8.934-3.827-22.241-5.741-39.924-5.741c-3.646,0-7.521-0.857-11.622-2.57 c-5.105-2.162-7.657-4.912-7.657-8.249c0-4.866,2.278-8.518,6.837-10.953c3.646-1.982,8.204-2.976,13.673-2.976 c6.652,0,12.623,1.77,17.911,5.277c5.559,3.778,9.068,8.128,10.527,15.128H1017v-35h-18v8.441c-4-2.875-8.307-5.305-14.857-7.282 c-5.916-1.707-11.615-2.562-16.984-2.562c-15.198-0.182-26.876,1.547-34.975,5.183c-11.011,5.093-16.528,13.914-16.528,26.463 c0,17.189,17.719,26.1,53.179,26.736c7.199,0.185,12.482,1.049,15.856,2.599c4.102,1.914,6.196,5.15,6.288,9.707 c0.09,9.663-7.111,14.492-21.604,14.492c-3.282,0-6.837-0.249-10.666-0.751c-3.828-0.499-8.022-2.754-12.579-7.04 c-4.833-4.557-7.339-8.986-7.521-12.986H916v34h18v-6.796c6,5.835,17.137,8.933,33.154,9.298 c12.648,0.274,23.947-1.688,34.048-5.879c13.104-5.285,19.62-13.216,19.62-23.791 C1020.822,329.457,1015.267,321.208,1004.238,316.375z"/>
	</g>
</svg>
